<svg xmlns="http://www.w3.org/2000/svg" height="530" width="530" viewBox="-3.07674 -5.136525 26.66508 30.81915">
  <defs>
    <clipPath clipPathUnits="userSpaceOnUse" id="t">
      <path d="M505.02 34.343h58.144v58.241H505.02z"/>
    </clipPath>
    <clipPath clipPathUnits="userSpaceOnUse" id="grzegorz-to-cipa">
      <path
        d="M534.45 81.187c.313-.718.402-.938 1.349-3.604.615-1.74 1.101-3.231 1.101-3.231.06-.181.024-.344-.079-.451-.077-.08 1.267-1.572 1.33-1.518.145.126.243.295.303.509.153.545-.178 1.533-1.347 5.011-.891 2.653-.986 2.906-1.304 3.676-.157.379-.341.618-.566.767-.002.002-.003.002-.005.002-.097 0-.782-1.161-.782-1.161"/>
    </clipPath>
    <clipPath clipPathUnits="userSpaceOnUse" id="r">
      <path d="M538.3883 83.2756l2.453-10.4204-6.1732-1.4532-2.453 10.4204z"/>
    </clipPath>
    <clipPath clipPathUnits="userSpaceOnUse" id="p">
      <path d="M505.02 34.343h58.144v58.241H505.02z"/>
    </clipPath>
    <clipPath clipPathUnits="userSpaceOnUse" id="m">
      <path
        d="M539.186 63.394c.155-.705.469-2.328.576-2.862.065-.317.232-.591.463-.794.122-.108 1.361.952 1.361.952s-.489 2.455-.639 3.068c-.05.202-.102.356-.197.472z"/>
    </clipPath>
    <clipPath clipPathUnits="userSpaceOnUse" id="n">
      <path d="M541.3842 64.8957l1.4783-4.8788-3.4742-1.0527-1.4784 4.8788z"/>
    </clipPath>
    <clipPath clipPathUnits="userSpaceOnUse" id="l">
      <path d="M505.02 34.343h58.144v58.241H505.02z"/>
    </clipPath>
    <clipPath clipPathUnits="userSpaceOnUse" id="i">
      <path
        d="M517.03 81.285c-4.994-9.516-1.331-21.279 8.186-26.275 9.517-4.996 21.279-1.332 26.276 8.186 4.994 9.516 1.328 21.278-8.186 26.273-2.887 1.515-5.981 2.235-9.029 2.235-7.002 0-13.767-3.79-17.247-10.419m9.177-24.387c-8.473 4.448-11.735 14.92-7.285 23.396 4.445 8.47 14.918 11.735 23.394 7.286 8.472-4.447 11.734-14.92 7.287-23.394-3.099-5.902-9.123-9.276-15.358-9.277-2.713 0-5.466.64-8.038 1.989"/>
    </clipPath>
    <clipPath clipPathUnits="userSpaceOnUse" id="j">
      <path d="M521.6377 110.3215L573.776 82.954l-26.8915-51.232-52.1385 27.3677z"/>
    </clipPath>
    <clipPath clipPathUnits="userSpaceOnUse" id="f">
      <path
        d="M528.093 86.745s-2.426-3.662-4.973-9.419c-2.697-6.095-5.138-12.655-5.138-12.655.85-1.77 1.097-2.638 2.51-3.981h6.358s.489 2.455.637 3.068c.151.614.323.783 1.667.783 1.346 0 5.062-.042 5.062-.042s3.715.042 5.06.042c1.345 0 1.516-.169 1.666-.783.151-.613.639-3.068.639-3.068h6.359c1.414 1.343 1.659 2.211 2.51 3.981 0 0-2.443 6.56-5.14 12.655-2.547 5.757-4.973 9.419-4.973 9.419s-2.69 1.244-6.121 1.244c-3.432 0-6.123-1.244-6.123-1.244m1.886-13.853c-.152.545.179 1.533 1.348 5.011.89 2.653.984 2.906 1.303 3.676.348.838.827.996 1.587.996s1.238-.158 1.586-.996c.318-.77.413-1.023 1.304-3.676 1.169-3.478 1.5-4.466 1.347-5.011-.151-.542-.544-.793-1.347-.793h-5.78c-.804 0-1.196.251-1.348.793"/>
    </clipPath>
    <clipPath clipPathUnits="userSpaceOnUse" id="g">
      <path d="M517.9816 87.9893h32.4679V60.6891h-32.468z"/>
    </clipPath>
    <clipPath clipPathUnits="userSpaceOnUse" id="e">
      <path d="M505.02 34.343h58.144v58.241H505.02z"/>
    </clipPath>
    <clipPath clipPathUnits="userSpaceOnUse" id="b">
      <path
        d="M530.743 88.747a16.253 16.253 0 01-2.47-.784c-5.971-2.442-10.177-8.305-10.177-15.154 0-2.744.677-5.331 1.873-7.604v.003a16.4976 16.4976 0 011.991-2.961c.003 0 .007-.002.008-.004.254-.302.52-.595.794-.876 2.974-3.04 7.113-4.925 11.698-4.925 4.587 0 8.728 1.888 11.703 4.926.271.278.53.565.781.86.002.008.011.012.014.019.507.599.97 1.234 1.391 1.902v.001c.209.335.405.681.592 1.032v-.001c1.204 2.279 1.888 4.872 1.888 7.628 0 6.948-4.332 12.881-10.44 15.255-.713.277-1.451.507-2.212.683-1.194.278-2.437.429-3.717.429-1.28 0-2.522-.151-3.717-.429"/>
    </clipPath>
    <clipPath clipPathUnits="userSpaceOnUse" id="c">
      <path d="M518.0957 89.175h32.7335V56.4416h-32.7335z"/>
    </clipPath>
    <clipPath clipPathUnits="userSpaceOnUse" id="a">
      <path d="M505.02 34.343h58.144v58.241H505.02z"/>
    </clipPath>
    <linearGradient x1="0" y1="0" x2="1" y2="0" gradientUnits="userSpaceOnUse"
                    gradientTransform="scale(9.82088 -9.82088) rotate(76.754 32.5489 30.2169)" spreadMethod="pad"
                    id="s">
      <stop offset="0" stop-color="#fff"/>
      <stop offset=".2033" stop-color="#cddbe4"/>
      <stop offset=".7857" stop-color="#4a5262"/>
      <stop offset="1" stop-color="#4a5262"/>
    </linearGradient>
    <linearGradient x1="0" y1="0" x2="1" y2="0" gradientUnits="userSpaceOnUse"
                    gradientTransform="scale(3.7038 -3.7038) rotate(73.142 84.5131 89.5876)" spreadMethod="pad" id="o">
      <stop offset="0" stop-color="#cedce4"/>
      <stop offset="1" stop-color="#34465d"/>
    </linearGradient>
    <linearGradient x1="0" y1="0" x2="1" y2="0" gradientUnits="userSpaceOnUse"
                    gradientTransform="scale(38.92093 -38.92093) rotate(27.695 10.8782 25.9009)" spreadMethod="pad"
                    id="k">
      <stop offset="0" stop-color="#fff"/>
      <stop offset=".2527" stop-color="#fff"/>
      <stop offset=".6868" stop-color="#e5e5e5"/>
      <stop offset=".9725" stop-color="#cfd0d0"/>
      <stop offset="1" stop-color="#cfd0d0"/>
    </linearGradient>
    <linearGradient x1="0" y1="0" x2="1" y2="0" gradientUnits="userSpaceOnUse"
                    gradientTransform="matrix(32.468 0 0 -32.468 517.9815 74.3393)" spreadMethod="pad" id="h">
      <stop offset="0" stop-color="#fff"/>
      <stop offset=".1923" stop-color="#fff"/>
      <stop offset=".489" stop-color="#e5e5e5"/>
      <stop offset=".4945" stop-color="#c1c2c2"/>
      <stop offset=".6483" stop-color="#9e9f9f"/>
      <stop offset=".9011" stop-color="#cfd0d0"/>
      <stop offset="1" stop-color="#cfd0d0"/>
    </linearGradient>
    <radialGradient fx="-.6509" fy="-.4232" cx="0" cy="0" r="1" gradientUnits="userSpaceOnUse"
                    gradientTransform="matrix(17.01522 0 0 -17.01522 534.338 73.6296)" spreadMethod="pad" id="d">
      <stop offset="0" stop-color="#88b4e1"/>
      <stop offset=".2143" stop-color="#88b4e1"/>
      <stop offset=".8956" stop-color="#002455"/>
      <stop offset="1" stop-color="#002455"/>
    </radialGradient>
  </defs>

  <g clip-path="url(#a)" transform="matrix(.35278 0 0 -.35278 -178.1598 32.6616)">
    <path
      d="M540.8471 37.9421h-1.043c-.472 0-.757.302-.634.668l.805 2.448c.125.368.282.67.346.67.071 0 .229-.302.345-.67l.813-2.448c.123-.366-.163-.668-.632-.668m-28.527 0h-1.057c-.466 0-.749.302-.629.668l.809 2.448c.126.368.278.67.351.67.069 0 .224-.302.345-.67l.807-2.448c.125-.366-.161-.668-.626-.668m50.727-3.078l-3.612 9.026c-.116.286-.468.521-.773.521h-2.958c-.307 0-.607-.249-.662-.552l-.795-4.184c-.059-.301-.133-.552-.164-.552-.034 0-.174.226-.319.5l-2.242 4.29c-.139.274-.512.498-.822.498h-3.532c-.31 0-.561-.254-.561-.563l.005-8.104-3.6 8.153c-.128.282-.481.514-.792.514h-3.877c-.311 0-.664-.233-.786-.517l-3.263-7.573-1.828 2.944c-.192.238-.192.627 0 .866l3.178 3.846c.203.238.109.434-.199.434h-3.979c-.311 0-.687-.22-.837-.493l-.71-1.271c-.15-.27-.292-.493-.32-.493-.028 0-.178.222-.332.487l-.742 1.282c-.158.269-.535.488-.846.488h-3.978c-.308 0-.397-.196-.2-.432l3.193-3.851c.201-.236.201-.628.006-.868l-4.007-4.314v8.902c0 .309-.254.563-.562.563h-3.401c-.31 0-.565-.254-.565-.563v-8.31l-3.687 8.359c-.122.282-.477.514-.789.514h-3.88c-.307 0-.661-.233-.782-.517l-3.886-9.035c-.12-.283.033-.516.343-.516h3.664c.309 0 .634.242.719.541l.052.173c.086.297.407.541.715.541h2.296c.312 0 .645-.24.736-.533l.064-.188c.094-.293.427-.534.738-.534h3.664c.127 0 .215.048.281.11.092-.062.197-.11.317-.11h3.401c.129 0 .244.052.338.127.039-.078.139-.127.294-.127h4.025c.311 0 .7.216.864.474l1.135 1.8c.167.263.332.477.369.477.034 0 .196-.217.359-.481l1.094-1.791c.163-.263.55-.479.857-.479h2.742c.056 0 .092.058.132.068.039-.009.069-.068.118-.068h3.221c.311 0 .632.242.718.541l.051.173c.084.297.41.541.72.541h2.294c.313 0 .641-.24.739-.534l.06-.187c.098-.293.431-.534.739-.534h3.668c.09 0 .165.028.227.063.073-.035.155-.063.246-.063h2.328c.313 0 .566.252.568.562l.005 4.189c0 .311.042.555.122.555.118-.425 2.702-4.821 2.702-4.821.161-.266.54-.485.851-.485h1.8c.305 0 .611.249.671.551l.794 4.204c.058.304.124.551.143.551.024 0 .124-.24.215-.535l1.354-4.235c.094-.295.425-.536.738-.536h3.26c.315 0 .471.235.355.521"
      fill="#002455"/>
    <path
      d="M534.2631 92.5841c-11.237 0-20.345-9.108-20.345-20.344s9.108-20.342 20.345-20.342c11.234 0 20.342 9.106 20.342 20.342 0 11.236-9.108 20.344-20.342 20.344"
      fill="#e3000b"/>
    <path
      d="M549.3622 62.7769v-.001c-.459-.731-.965-1.426-1.516-2.082-.006-.006-.015-.012-.02-.019-.27-.324-.557-.636-.852-.939-3.251-3.322-7.78-5.387-12.793-5.387-5.011 0-9.536 2.062-12.787 5.384-.3.308-.59.627-.868.958-.002 0-.004.003-.007.003a18.055 18.055 0 00-2.178 3.237v-.001c-1.307 2.482-2.049 5.311-2.049 8.31 0 7.488 4.6 13.896 11.126 16.566v-.002c.868.357 1.769.643 2.701.859 1.304.303 2.664.467 4.062.467 1.4 0 2.761-.164 4.066-.467.829-.194 1.638-.444 2.417-.748 6.675-2.596 11.41-9.079 11.41-16.675 0-3.012-.748-5.848-2.064-8.337v.001c-.204-.384-.418-.761-.648-1.127"
      fill="#000d30"/>
  </g>
  <g clip-path="url(#b)" transform="matrix(.35278 0 0 -.35278 -178.1598 32.6616)">
    <g clip-path="url(#c)">
      <path
        d="M530.743 88.747a16.253 16.253 0 01-2.47-.784c-5.971-2.442-10.177-8.305-10.177-15.154 0-2.744.677-5.331 1.873-7.604v.003a16.4976 16.4976 0 011.991-2.961c.003 0 .007-.002.008-.004.254-.302.52-.595.794-.876 2.974-3.04 7.113-4.925 11.698-4.925 4.587 0 8.728 1.888 11.703 4.926.271.278.53.565.781.86.002.008.011.012.014.019.507.599.97 1.234 1.391 1.902v.001c.209.335.405.681.592 1.032v-.001c1.204 2.279 1.888 4.872 1.888 7.628 0 6.948-4.332 12.881-10.44 15.255-.713.277-1.451.507-2.212.683-1.194.278-2.437.429-3.717.429-1.28 0-2.522-.151-3.717-.429"
        fill="url(#d)"/>
    </g>
  </g>
  <g clip-path="url(#e)" transform="matrix(.35278 0 0 -.35278 -178.1598 32.6616)">
    <path
      d="M536.4712 73.7668h-4.57c-.342 0-.536.263-.43.585 0 0 .485 1.492 1.101 3.231.945 2.665 1.034 2.885 1.348 3.602l.014.03c.01.025.077.049.144.053h.215c.068-.004.132-.028.145-.052l.011-.029c.314-.719.403-.939 1.35-3.604.615-1.739 1.102-3.231 1.102-3.231.103-.322-.088-.585-.43-.585m14.064-7.633c-.018.053-1.949 5.277-4.489 10.983-2.412 5.419-4.673 9.348-4.767 9.51-.201.345-.591.604-1.018.708 0 0-3.238 1.038-6.046 1.038-2.808 0-6.045-1.038-6.045-1.038-.42-.124-.801-.334-1.018-.708-.093-.164-2.356-4.091-4.767-9.51-2.54-5.706-4.471-10.93-4.49-10.983-.133-.363-.115-.764.052-1.113.882-1.827 2.343-3.827 3.816-5.22.27-.256.63-.398 1.007-.403l4.452-.027h.012c.697 0 1.301.486 1.439 1.162.108.533.421 2.157.576 2.862.068 0 .144.003.232.003 1.154 0 4.212-.033 4.7-.039v-.002c.002 0 .015.001.034.001.02 0 .033-.001.034-.001v.002c.488.006 3.546.039 4.7.039.088 0 .165-.003.233-.003.155-.705.468-2.329.575-2.862.139-.676.742-1.162 1.44-1.162h.011l4.453.027c.376.005.736.147 1.005.403 1.474 1.393 2.935 3.393 3.817 5.22.167.349.185.75.052 1.113"
      fill="#000d30"/>
  </g>
  <g clip-path="url(#f)" transform="matrix(.35278 0 0 -.35278 -178.1598 32.6616)">
    <g clip-path="url(#g)">
      <path
        d="M528.093 86.745s-2.426-3.662-4.973-9.419c-2.697-6.095-5.138-12.655-5.138-12.655.85-1.77 1.097-2.638 2.51-3.981h6.358s.489 2.455.637 3.068c.151.614.323.783 1.667.783 1.346 0 5.062-.042 5.062-.042s3.715.042 5.06.042c1.345 0 1.516-.169 1.666-.783.151-.613.639-3.068.639-3.068h6.359c1.414 1.343 1.659 2.211 2.51 3.981 0 0-2.443 6.56-5.14 12.655-2.547 5.757-4.973 9.419-4.973 9.419s-2.69 1.244-6.121 1.244c-3.432 0-6.123-1.244-6.123-1.244m1.886-13.853c-.152.545.179 1.533 1.348 5.011.89 2.653.984 2.906 1.303 3.676.348.838.827.996 1.587.996s1.238-.158 1.586-.996c.318-.77.413-1.023 1.304-3.676 1.169-3.478 1.5-4.466 1.347-5.011-.151-.542-.544-.793-1.347-.793h-5.78c-.804 0-1.196.251-1.348.793"
        fill="url(#h)"/>
    </g>
  </g>
  <g clip-path="url(#i)" transform="matrix(.35278 0 0 -.35278 -178.1598 32.6616)">
    <g clip-path="url(#j)">
      <path
        d="M517.03 81.285c-4.994-9.516-1.331-21.279 8.186-26.275 9.517-4.996 21.279-1.332 26.276 8.186 4.994 9.516 1.328 21.278-8.186 26.273-2.887 1.515-5.981 2.235-9.029 2.235-7.002 0-13.767-3.79-17.247-10.419m9.177-24.387c-8.473 4.448-11.735 14.92-7.285 23.396 4.445 8.47 14.918 11.735 23.394 7.286 8.472-4.447 11.734-14.92 7.287-23.394-3.099-5.902-9.123-9.276-15.358-9.277-2.713 0-5.466.64-8.038 1.989"
        fill="url(#k)"/>
    </g>
  </g>
  <g clip-path="url(#l)" transform="matrix(.35278 0 0 -.35278 -178.1598 32.6616)">
    <path
      d="M528.6772 60.5517c-.138-.676-.729-1.18-1.427-1.18h-.011l-4.452.027c-.452.381-.988.883-.988.883l-1.291.408h6.358zm12.9042.1376h6.358l-1.292-.409s-.535-.501-.987-.882l-4.452-.028h-.012c-.697 0-1.3.487-1.439 1.162"
      fill="#000d30"/>
  </g>
  <g clip-path="url(#m)" transform="matrix(.35278 0 0 -.35278 -178.1598 32.6616)">
    <g clip-path="url(#n)">
      <path
        d="M539.186 63.394c.155-.705.469-2.328.576-2.862.065-.317.232-.591.463-.794.122-.108 1.361.952 1.361.952s-.489 2.455-.639 3.068c-.05.202-.102.356-.197.472z"
        fill="url(#o)"/>
    </g>
  </g>
  <g clip-path="url(#p)" transform="matrix(.35278 0 0 -.35278 -178.1598 32.6616)">
    <path d="M540.3414 86.2542s4.116-5.647 9.291-20.409c-6.293 12.292-9.291 20.409-9.291 20.409" fill="#fff"/>
  </g>
  <g clip-path="url(#q)" transform="matrix(.35278 0 0 -.35278 -178.1598 32.6616)">
    <g clip-path="url(#r)">
      <path
        d="M534.45 81.187c.313-.718.402-.938 1.349-3.604.615-1.74 1.101-3.231 1.101-3.231.06-.181.024-.344-.079-.451-.077-.08 1.267-1.572 1.33-1.518.145.126.243.295.303.509.153.545-.178 1.533-1.347 5.011-.891 2.653-.986 2.906-1.304 3.676-.157.379-.341.618-.566.767-.002.002-.003.002-.005.002-.097 0-.782-1.161-.782-1.161"
        fill="url(#s)"/>
    </g>
  </g>
  <g clip-path="url(#t)" transform="matrix(.35278 0 0 -.35278 -178.1598 32.6616)">
    <path
      d="M538.345 71.8002c1.038-.037 1.852.455 1.484 1.433-.77 2.142-3.894 8.607-3.894 8.607.334-.802.433-1.065 1.369-3.831 1.228-3.627 1.575-4.658 1.415-5.226-.159-.565-.57-.827-1.415-.827h-6.07zm1.9943-6.921c1.384.026 1.581-.142 1.811-.769.232-.634 1.269-3.268 1.269-3.268h-1.576s-.489 2.455-.639 3.068c-.15.615-.321.784-1.666.784-1.346 0-5.061-.042-5.061-.042s-3.716.042-5.061.042z"
      fill="#fff"/>
  </g>
</svg>
