<?xml version="1.0" encoding="UTF-8" standalone="no"?>
<svg
   xmlns:dc="http://purl.org/dc/elements/1.1/"
   xmlns:cc="http://creativecommons.org/ns#"
   xmlns:rdf="http://www.w3.org/1999/02/22-rdf-syntax-ns#"
   xmlns:svg="http://www.w3.org/2000/svg"
   xmlns="http://www.w3.org/2000/svg"
   xmlns:sodipodi="http://sodipodi.sourceforge.net/DTD/sodipodi-0.dtd"
   xmlns:inkscape="http://www.inkscape.org/namespaces/inkscape"
   width="450"
   height="76.5"
   viewBox="0 0 80 13.6"
   version="1.1"
   id="svg2"
   sodipodi:version="0.32"
   inkscape:version="0.92.4 (5da689c313, 2019-01-14)"
   sodipodi:docname="2020 Día de La Tierra black icon.svg">
  <title
     id="title827">Geely logo</title>
  <metadata
     id="metadata59">
    <rdf:RDF>
      <cc:Work
         rdf:about="">
        <dc:format>image/svg+xml</dc:format>
        <dc:type
           rdf:resource="http://purl.org/dc/dcmitype/StillImage" />
        <dc:title>Geely logo</dc:title>
        <cc:license
           rdf:resource="http://creativecommons.org/licenses/by/4.0/" />
        <dc:date>29 abr 2020</dc:date>
        <dc:creator>
          <cc:Agent>
            <dc:title>EEIM</dc:title>
          </cc:Agent>
        </dc:creator>
        <dc:rights>
          <cc:Agent>
            <dc:title>N/A</dc:title>
          </cc:Agent>
        </dc:rights>
      </cc:Work>
      <cc:License
         rdf:about="http://creativecommons.org/licenses/by/4.0/">
        <cc:permits
           rdf:resource="http://creativecommons.org/ns#Reproduction" />
        <cc:permits
           rdf:resource="http://creativecommons.org/ns#Distribution" />
        <cc:requires
           rdf:resource="http://creativecommons.org/ns#Notice" />
        <cc:requires
           rdf:resource="http://creativecommons.org/ns#Attribution" />
        <cc:permits
           rdf:resource="http://creativecommons.org/ns#DerivativeWorks" />
      </cc:License>
    </rdf:RDF>
  </metadata>
  <defs
     id="defs57">
    <pattern
       y="0"
       x="0"
       height="6"
       width="6"
       patternUnits="userSpaceOnUse"
       id="EMFhbasepattern" />
  </defs>
  <sodipodi:namedview
     inkscape:window-height="705"
     inkscape:window-width="1366"
     inkscape:pageshadow="2"
     inkscape:pageopacity="0"
     guidetolerance="1"
     gridtolerance="1"
     objecttolerance="1"
     borderopacity="1.0"
     bordercolor="#666666"
     pagecolor="#ffffff"
     id="base"
     inkscape:zoom="1"
     inkscape:cx="52.288944"
     inkscape:cy="11.904878"
     inkscape:window-x="-8"
     inkscape:window-y="-8"
     inkscape:current-layer="svg2"
     showgrid="false"
     showguides="true"
     inkscape:showpageshadow="false"
     units="px"
     inkscape:window-maximized="1"
     inkscape:snap-path-clip="false"
     inkscape:snap-path-mask="false"
     inkscape:snap-perpendicular="false"
     inkscape:snap-tangential="false" />
  <g
     id="#ffffffff"
     transform="translate(0,-1127.4)" />
  <g
     id="#2acbffff-4"
     transform="matrix(0.74035173,0,0,0.75447038,-840.95699,-813.55387)"
     style="fill:#00ff00" />
  <g
     id="#000000ff-6"
     transform="matrix(0.14544439,0,0,0.14544439,32.622855,-34.339333)" />
  <g
     transform="matrix(0.07238679,0,0,0.07238679,-4.1822032,-15.282147)"
     id="#1372b8ff-2">
    <path
       style="opacity:1;fill:#1372b8;stroke-width:0.99999994"
       d="m 277.37681,214.07879 c -47.98999,0.01 -95.98481,0.0116 -143.97481,0.0216 -11.43,0 -22.97291,-0.32097 -34.212907,2.02903 -10.23,2.1 -20.550202,6.67931 -26.960203,15.23931 -7.149999,9.35 -8.93161,21.55571 -8.87161,33.02571 0.04,27.68 -0.0084,55.35915 0.02158,83.03914 0.2,10.81 2.310637,22.21034 9.130637,30.91034 5.809999,7.54 14.740314,11.98321 23.830314,14.20321 13.079999,3.38001 26.682549,2.56501 40.062549,2.65501 47,0.01 93.99603,-0.0184 140.99603,0.0216 1.41,-0.07 2.90075,0.0304 4.23075,-0.53964 1.48999,-0.9 1.1967,-2.77075 1.3167,-4.23075 -0.01,-32.33999 -0.02,-64.6865 0,-97.0265 -0.04,-2.44 0.14257,-4.88588 -0.23744,-7.29588 -0.85,-2.1 -3.49842,-1.62159 -5.28843,-1.79159 h -122.044 c -2.97,0.03 -5.96479,-0.17939 -8.91479,0.28061 -1.83,0.2 -2.07586,2.26428 -1.98586,3.73428 0.05,10.71 -0.0652,21.43071 0.0648,32.14071 -0.21,2.11 2.03745,2.93293 3.77745,2.76293 24.04,0.07 48.07692,0.0132 72.11692,0.0432 3.4,0.04 6.8299,-0.26621 10.20991,0.32379 -0.12,10.73 -0.0832,21.48704 -0.0432,32.22704 -34.72999,0.23 -69.46286,0.008 -104.19286,0.10793 -2.71,-0.02 -5.70978,0.0743 -8.02978,-1.57574 -2.21,-1.51 -2.68342,-4.39575 -2.63342,-6.88575 0.01,-28.37 0.03,-56.72976 0,-85.08976 -0.02,-2.33 0.10159,-4.91307 1.79159,-6.71307 2,-2.14 5.11709,-2.33123 7.85709,-2.33123 50.7,0.02 101.39094,0.002 152.09094,0.0216 2.11,0.08 5.61477,-0.10513 5.37477,-3.06513 0.11,-11.14 0.18841,-22.29583 -0.0216,-33.43583 0.04,-2.8 -3.45112,-2.81611 -5.46112,-2.80611 z m 454.93452,0 c -43.3,0.04 -86.6127,0.002 -129.9227,0.0216 -7.02,-0.02 -14.03945,0.31463 -20.95945,1.42463 -10.66,1.76 -21.56179,5.8148 -28.7518,14.2248 -7.73,8.96 -10.0599,21.20193 -10.20991,32.70193 -0.02,28.34 -0.0384,56.66342 0.0216,85.00342 0.17,12.79 3.39454,26.66169 13.40454,35.42168 11.05001,9.61001 26.34269,11.83371 40.47269,12.30371 45.66999,0.09 91.3543,-0.0168 137.0243,0.0432 1.94,0.02 5.08941,-0.0214 5.02941,-2.74135 0.24,-11.02 0.12476,-22.08206 0.0648,-33.11205 0.41001,-3 -2.85574,-3.63209 -5.11574,-3.43209 -43,-0.01 -86.00611,-0.008 -129.01611,0.0216 -2.59,-0.02 -5.49015,-0.19062 -7.49015,-2.05062 -1.97,-1.93 -1.97586,-4.88697 -1.98586,-7.44697 0.06,-7.73 -0.0252,-15.44117 0.0648,-23.16117 45.14001,0 90.28699,-0.0116 135.427,-0.0216 1.94999,0.21 4.75135,-0.41562 4.51135,-2.93562 0.18,-10.31 0.006,-20.63351 0.0863,-30.95351 -0.12,-1.59 0.3295,-4.05245 -1.64049,-4.66245 -3.59,-0.72 -7.29224,-0.27854 -10.92224,-0.38854 H 594.89849 c 0.1,-8.3 -0.2089,-16.61958 0.15109,-24.90958 0.18,-4.22 4.61515,-6.33392 8.37515,-6.04392 43.33,-0.04 86.65746,-0.002 129.98746,-0.0216 1.96,0 5.13782,-0.0461 5.00782,-2.8061 0.3,-10 0.0211,-20.03692 0.1511,-30.04692 -0.13001,-1.81 0.2345,-3.80953 -0.75549,-5.43953 -1.60001,-1.14 -3.66429,-0.89293 -5.50429,-0.99293 z m 46.10648,0 c -1.53,0.21 -3.36929,-0.28292 -4.61928,0.77708 -1.41001,1.07 -1.15196,3.02611 -1.25196,4.57611 0.01,41.34 -0.02,82.68988 0,124.02988 0.03,10.79 1.10075,21.96217 6.00075,31.75216 3.43,6.97 9.59188,12.3909 16.77188,15.2609 12.36001,5.07 25.98121,4.79721 39.09121,4.72721 41.67,-0.01 83.34123,0.03 125.00123,0 1.77,0.09 4.24233,-0.49977 4.25232,-2.71976 0.41001,-10.33 0.0643,-20.69985 0.19428,-31.03985 -0.19,-1.82 0.29121,-4.03636 -1.20878,-5.39636 -1.60001,-0.99 -3.55161,-0.84659 -5.33161,-0.90659 -40.3,0.05 -80.58841,0.003 -120.8784,0.0432 -3.03,-0.03 -6.39162,0.0257 -8.87162,-1.96427 -2.33,-1.85 -2.70818,-5.02234 -2.69817,-7.79234 -0.02,-41.98 -0.002,-83.97098 -0.0216,-125.95098 0.12,-2.22 -0.61892,-5.29526 -3.38891,-5.24526 -14.34,-0.35 -28.70135,-0.0411 -43.04135,-0.1511 z m -400.04277,0.0216 c -8.17,-0.04 -16.38312,0.27476 -24.41312,1.83476 -10.29,2 -20.70874,6.3776 -27.34874,14.8076 -7.34,9.15 -9.42442,21.29351 -9.45441,32.72351 -0.02,25.65 0.01,51.28047 0,76.93047 -0.21001,11.28 0.46709,23.1284 6.08708,33.1984 4.65,8.59 13.06458,14.61053 22.25458,17.57053 12.84,4.36001 26.57463,4.14648 39.95463,4.03648 40.99,0 81.98219,0.0116 122.97219,0.0216 1.54001,-0.08 3.38819,0.0233 4.46819,-1.31672 0.91,-2.04 0.58914,-4.32721 0.66915,-6.49721 -0.14001,-9.32 0.14049,-18.66472 -0.12952,-27.97472 0.24,-2.85 -2.7594,-3.67525 -5.0294,-3.47525 -43.34,-0.04 -86.70222,0.008 -130.05222,-0.0216 -2.28999,-0.05 -4.81038,-0.35744 -6.54038,-2.00744 -1.7,-1.64 -1.99586,-4.14929 -1.98586,-6.38929 -0.02,-8.05 0.0384,-16.08251 -0.0216,-24.13251 45.19999,-0.28 90.39966,-0.0195 135.59967,-0.12951 1.84999,0.12 4.44025,-0.44611 4.36025,-2.80611 0.35,-10 0.0327,-20.03692 0.17268,-30.04692 -0.18,-1.8 0.34439,-4.01477 -1.16561,-5.37477 -1.34,-0.69 -2.89867,-0.61073 -4.33867,-0.69073 -44.88,-0.04 -89.75832,0.0368 -134.62832,-0.0432 0.05,-7.65 -0.0284,-15.29531 0.0216,-22.94531 -0.01,-2.25 0.48123,-4.74819 2.33123,-6.23819 2.02,-1.67 4.7527,-1.74001 7.2527,-1.77001 42.67001,0.02 85.3316,-0.0184 128.00159,0.0216 1.66001,-0.06 3.43465,0.0245 4.96466,-0.75549 1.51,-1.66 1.04719,-4.12344 1.1872,-6.17344 -0.15001,-9.68 0.1689,-19.38398 -0.1511,-29.05398 0.15999,-2.76 -2.86941,-3.49257 -5.02941,-3.30257 -43.33999,-0.04 -86.66905,0.01 -130.00904,0 z m 519.02166,0 c -1.82,-0.26 -4.71269,0.76671 -3.7127,3.08671 1.27,2.85 3.73173,4.91112 5.74172,7.23112 32.89,36.15 65.74542,72.34837 98.64542,108.48837 2.10996,2.28 0.68927,5.74783 1.07927,8.54783 0,16.33 -0.01,32.68051 0,49.02051 -0.17,2.09 0.68099,4.93245 3.28099,4.66246 15.32,0.11 30.657,0.12 45.977,0 2.58,0.25999 3.1614,-2.61928 3.1514,-4.61928 0,-18.05001 0.04,-36.08627 0,-54.13627 -0.12,-1.32 0.076,-2.70318 1.1656,-3.58318 34.04,-37.27 68.0028,-74.60886 102.0127,-111.89886 1.0801,-1.33 2.2935,-2.7066 2.6336,-4.4466 0.1799,-2.15 -2.4634,-2.37281 -3.9934,-2.35281 -15.98,-0.03 -31.9612,-0.0184 -47.9412,0.0216 -5.37,-0.12 -10.9554,1.61648 -14.5054,5.80648 -21.84,23.9 -43.765,47.72363 -65.555,71.66363 -2.11,-1.92 -3.9828,-4.08502 -5.8928,-6.19502 -19.65001,-21.66 -39.27982,-43.33214 -58.94983,-64.97214 -3.47999,-4.11 -8.76687,-6.32136 -14.11686,-6.28136 -16.34001,-0.12 -32.68051,-0.0532 -49.02051,-0.0432 z"
       id="path3-9"
       inkscape:connector-curvature="0" />
  </g>
</svg>
