<?xml version="1.0" encoding="utf-8"?>
<!-- Svg Vector Icons : http://www.onlinewebfonts.com/icon -->
<!DOCTYPE svg PUBLIC "-//W3C//DTD SVG 1.1//EN" "http://www.w3.org/Graphics/SVG/1.1/DTD/svg11.dtd">
<svg version="1.1" xmlns="http://www.w3.org/2000/svg" xmlns:xlink="http://www.w3.org/1999/xlink" x="0px" y="0px" viewBox="0 0 1000 1000" enable-background="new 0 0 1000 1000" xml:space="preserve">
<metadata> Svg Vector Icons : http://www.onlinewebfonts.com/icon </metadata>
<g><g transform="translate(0.000000,512.000000) scale(0.100000,-0.100000)"><path d="M4654.9,5021c-36.4-3.8-149.6-17.3-249.4-28.8C3360,4873.3,2314.4,4359.1,1537.4,3584.1C762.4,2807.1,277,1824.8,125.4,716c-32.6-234.1-34.5-953.5-1.9-1179.9c82.5-592.8,222.5-1051.3,489.2-1601.9c368.3-759.7,938.1-1406.2,1682.5-1903.1c283.9-191.8,807.7-454.7,1083.9-548.7C4643.4-4945.4,5982.5-4861,7147-4279.7c523.7,260.9,917,541,1314.1,940C9240-2562.7,9715.8-1593.8,9877-463.9c30.7,224.5,30.7,945.8,0,1170.3c-134.3,942-489.2,1776.5-1059,2482.5c-786.6,976.5-1905,1613.4-3155.9,1797.6C5478,5013.3,4793.1,5038.3,4654.9,5021z M5671.7,4658.4c763.5-113.2,1496.4-420.1,2108.4-878.7c211-157.3,654.2-590.9,811.5-792.3c880.6-1120.4,1195.2-2588,857.6-3977c-151.6-619.7-460.4-1250.8-857.6-1755.4c-136.2-174.6-550.6-589-725.2-725.2c-362.6-285.8-903.6-585.1-1323.7-730.9c-243.7-86.3-610.1-174.6-871-214.9c-402.9-59.5-1022.5-57.5-1389,5.8l-72.9,13.4l155.4,120.9c161.1,124.7,320.4,305,422.1,479.6c328.1,560.2,285.8,1273.9-107.4,1789.9l-97.8,128.5L5631.4-832.2C6744.1,278.6,6721.1,257.5,7064.5,410.9c556.4,247.5,892.1,725.2,957.3,1360.2c15.3,157.3-17.3,408.6-78.7,594.7c-168.8,506.5-621.6,884.4-1187.5,991.9c-211,40.3-565.9,24.9-746.3-32.6c-243.6-76.7-652.2-243.7-775-314.6c-237.9-140.1-462.4-391.4-604.3-673.4c-69.1-138.1-147.7-397.1-147.7-489.2c0-28.8-19.2-88.3-42.2-132.4c-26.9-48-717.5-754-1807.2-1841.7L871.7-1889.3l-65.2,143.9C656.8-1419.3,522.6-947.3,459.2-531c-46,307-46,997.6,0,1304.5c95.9,631.2,314.6,1237.4,635,1765c324.2,531.4,823,1047.5,1341,1392.8c222.5,149.6,623.5,358.8,867.1,454.7c360.7,143.9,836.4,257.1,1247,299.3C4787.3,4710.2,5428.1,4694.9,5671.7,4658.4z M6751.8,3046.9c153.5-32.6,372.2-134.3,489.2-228.3c88.3-71,78.7-88.3-44.1-88.3c-105.5,0-251.3-57.6-318.5-126.6c-48-49.9-63.3-84.4-71-159.2c-7.7-82.5-1.9-101.7,40.3-143.9c69.1-69.1,153.5-67.1,226.4,5.8c30.7,30.7,55.6,71,55.6,86.3c0,26.9,32.6,30.7,220.6,30.7h222.5l38.4-90.2c99.8-232.1,130.5-550.6,76.7-773.1c-63.3-257.1-228.3-510.3-429.7-663.8c-155.4-118.9-579.4-320.4-623.5-297.4c-19.2,9.6-107.4,21.1-199.5,26.9c-222.5,11.5-345.3,69.1-364.5,166.9c-13.4,72.9-92.1,153.5-149.6,153.5c-115.1,0-184.2-88.3-166.9-213c19.2-149.6,191.8-303.1,427.8-381.8l126.6-42.2L4913.9-1087.4L3517.3-2484l61.4-151.6c80.6-203.3,117-383.7,117-600.5c0-301.2-67.1-539.1-218.7-792.3c-74.8-124.7-82.5-130.5-136.2-119c-99.8,19.2-663.8,307-863.3,441.3c-370.3,247.5-767.4,608.2-1037.9,940c-128.5,157.3-372.2,516.1-372.2,548.7c0,11.5,19.2,48,42.2,80.6c21.1,34.6,836.4,859.5,1809.1,1836c1954.9,1962.6,1841.7,1832.1,1889.7,2137.2c55.6,349.2,213,623.5,466.2,811.5c134.3,97.8,216.8,138.1,573.6,274.3C6243.4,3073.8,6475.6,3106.4,6751.8,3046.9z M4434.3-2213.5c90.2-118.9,174.6-293.5,214.9-447c42.2-165,42.2-485.4,0-652.3c-95.9-368.3-333.8-665.7-663.8-830.7c-166.9-84.4-245.6-109.4-228.3-74.8c168.8,328.1,230.2,514.2,264.7,800c30.7,239.8-3.8,546.8-86.3,777l-30.7,84.4l216.8,216.8c118.9,118.9,222.5,216.8,230.2,216.8C4359.5-2123.3,4395.9-2163.6,4434.3-2213.5z"/></g></g>
</svg>