<?xml version="1.0" encoding="utf-8"?>
<!-- Generator: Adobe Illustrator 19.0.0, SVG Export Plug-In . SVG Version: 6.00 Build 0)  -->
<svg version="1.1" id="Layer_1" xmlns="http://www.w3.org/2000/svg" xmlns:xlink="http://www.w3.org/1999/xlink" x="0px" y="0px"
	 viewBox="0 0 500 500" style="enable-background:new 0 0 500 500;" xml:space="preserve">
<style type="text/css">
	.st0{fill:#E6E7E8;}
	.st1{fill:#ACAFB2;}
	.st2{fill:#01336B;}
	.st3{fill:#8D9093;}
	.st4{fill:#5F6269;}
	.st5{fill:#101A4B;}
	.st6{fill:#FFFFFF;}
</style>
<g id="XMLID_1_">
	<path id="XMLID_2_" class="st0" d="M248.7,429.8c-3.6-1.4-30-14.2-37.2-18.1c-49.3-26.8-82.1-59-108.9-106.8
		C84.6,272.6,75,238.1,71.8,194.4c-0.7-9.8-0.4-42.3,0.6-53.7l0.4-5l7.2-5.5c26.2-20,57.2-37.1,84.6-46.4
		c15.6-5.4,34.4-9.7,53.5-12.3c14-1.9,47.9-2.1,61.5-0.3c32.8,4.3,57.9,11.6,85.6,25.1c21,10.2,43.1,24.3,59.9,38.1l2.3,1.9
		l0.7,12.8c0.9,15.8,0.4,46.5-0.9,58.3c-2.2,19.4-4.9,32.5-10.4,51.2c-4.7,15.9-7.6,23.2-14.6,37c-13.9,27.5-29,48.5-49.6,69.1
		c-24.1,24-47.2,39.6-86.7,58.3C251.1,430,250.1,430.4,248.7,429.8L248.7,429.8z M392.9,289.1c8.4-16.7,12.4-26.9,15.8-40.9
		c1.8-7.1,3.1-17.3,2.2-16.5c-0.2,0.2-1.7,5.1-3.2,10.9c-6,23-10.4,35.4-18.9,52.4c-2.6,5.2-4.1,8.7-3.4,7.8
		C386.2,302,389.5,295.8,392.9,289.1L392.9,289.1z M146.9,168.5c0-0.3,0.5-0.9,1.2-1.2c0.7-0.4,1.8-1.7,2.6-3
		c0.8-1.3,3.6-4.7,6.2-7.7c13.3-14.9,25.9-24.4,42.2-31.9c7.4-3.4,12-5,22.1-7.7c4.6-1.2,8.7-2.5,9-2.8c0.3-0.3,1.3-0.6,2.2-0.6
		c1.5,0,1.5-0.1-0.5-1.1c-2-1-2.4-1-8.7,0.3c-23.5,4.9-46.6,17.6-63,34.7c-6.2,6.4-13.2,15.5-15.3,19.8c-0.8,1.5-1.8,3.3-2.3,3.9
		c-0.6,0.7-0.6,1.1-0.2,1.1c0.4,0,0.7,0.5,0.7,1c0,0.6,0.8,0,1.9-1.6C146,170.3,146.9,168.9,146.9,168.5L146.9,168.5z"/>
	<path id="XMLID_3_" class="st1" d="M239.3,424.4c-23.7-11.2-38.4-19.2-52.8-28.8c-36.6-24.5-64.4-55.9-86.1-97.2
		c-11.6-22.1-20.2-48.8-24.5-75.9c-3-19-3.6-30.6-3.2-56.8c0.2-13.1,0.6-25,0.8-26.4c0.3-2.5,0.8-3,6.4-7.5
		c28.7-22.9,66-42.1,99.7-51.3c24-6.6,45.6-9.5,70.3-9.5c23.1,0,42.5,2.4,65.9,8.3c36.5,9.1,76.2,29.8,110.1,57.3
		c1.9,1.6,2.4,49.5,0.6,67.5c-2,20.6-4.8,34.7-11,55.3c-7.1,23.7-15.7,41.6-31.5,65.3c-10.7,16.2-18.8,26-31.8,39.1
		c-21.5,21.5-43.3,36.7-75.3,52.7c-13.9,6.9-26,12.5-27.1,12.5C249.4,429,244.7,427,239.3,424.4L239.3,424.4z M265.7,415.1
		c16.9-8.5,23.5-12.4,27.3-16l20.7-11.3l34.5-25.2l46.2-62.5l24.3-68l4.4-55.4l-2.5-36.7l-36.4-27.4l-44.7-21.2
		C327,85.6,300,78.7,278.1,75.7c-11.3-1.6-39.8-1.9-52.3-0.7c-26,2.6-50.2,8.4-69.7,16.7c-23.7,10.1-36.6,17.2-60.2,33
		c-16.2,10.9-16.9,11.4-17.3,13.6c-0.2,1.3-0.6,9.6-0.9,18.6c-1.4,52.7,7.5,97.7,26.9,136.5C135.3,352,186.6,400,249.5,422.1
		C251.3,422.2,255.2,420.5,265.7,415.1L265.7,415.1z"/>
	<path id="XMLID_50_" class="st2" d="M238.7,399.6c-33.3-17.3-53-31-72.5-50.5c-18-18-29.9-33.8-42.4-56.7
		c-21.3-38.9-29.6-82.2-25.9-136.3l0.4-5.8l6-4.5c27.8-21,57.2-35.8,85.3-43.2c21.5-5.6,36.4-7.5,59.7-7.5c21.4,0,33,1.3,53.4,5.8
		c25.5,5.7,53.3,18,78.1,34.6c10.2,6.8,20,14.3,20.6,15.6c0.3,0.7,0.6,12.9,0.6,27c0.1,23.4-0.1,26.5-1.4,35.9
		c-5.3,38.4-15.9,66.8-36.8,98.1c-20.9,31.4-47.9,56.5-81.8,75.9c-6.6,3.8-30,16.3-31.6,16.8C250.1,405.1,244.7,402.7,238.7,399.6
		L238.7,399.6z"/>
	<path id="XMLID_4_" class="st0" d="M263.6,361.5c22.7-2.5,44.6-11,62.8-24.5c6.3-4.6,17.3-15.3,22.5-21.7
		c13-16.1,22.1-35.2,26.5-55.9c1.6-7.6,1.7-9.1,1.7-24.1c0-13.9-0.2-16.9-1.4-23.1c-7.2-37.7-29.9-69.4-63.4-88.5
		c-11.7-6.7-26.9-12.1-41.5-14.6c-9.7-1.7-28.8-2-38.1-0.7c-31.6,4.7-59.5,19.7-79.5,42.9c-28.6,33.1-38.2,76.9-26.1,119
		c9.8,34.2,35,63.9,67.5,79.4c11.8,5.6,28,10.3,40.9,11.7C242.5,362.3,256.6,362.3,263.6,361.5L263.6,361.5z M231.2,345.7
		c-38.7-6.5-72.3-33.4-86.3-68.9c-5.4-13.7-7.4-23.6-7.9-38.2c-0.4-11.9,0.4-20.4,2.9-30.4c10.9-43.5,44.5-75.7,87.7-84
		c9.6-1.9,10.3-1.8,11.4,1c2.6,6.3,5,19.2,7.4,40.2c1,1.9-0.3,16.4,3.9,14.6c0.8-0.5,1.2-2,1.6-5.6c2.5-26.1,6.6-47.8,9.6-50.8
		c0.8-0.8,1.7-0.8,7.3,0.1c23,3.7,44,14.6,61.1,31.7c8.9,9,14.6,16.6,20,26.9c9.7,18.7,13.7,36.2,13,56.3c-0.4,10.2-1.3,16.5-3.9,26
		c-10.8,39.7-43.7,70.9-84.1,79.7c-3.9,0.9-8.5,1.7-10.1,2l-3,0.4l-1-2.4c-3-7.1-6.8-28.1-8.3-46.1c-0.4-4.5-0.8-8.6-1-9.2
		c-0.3-1.1-2.4-1.5-3-0.6c-0.2,0.3-1,6.9-1.9,14.7c-2.6,23.4-6.2,41.5-8.5,43C237,346.7,237.2,346.7,231.2,345.7L231.2,345.7z"/>
	<path id="XMLID_5_" class="st3" d="M239.3,353.7c-0.5-0.1-4.3-0.5-8.4-0.8c-7.3-0.6-15.5-2.6-23.3-5.5c-3.6-1.4-9.2-4.5-8.8-4.9
		c0.1-0.1,2.5,0.6,5.2,1.7c12.1,4.7,16.6,5.7,29,6.1c9,0.3,12.1,0.7,14,1.5c1.9,0.8,2.2,1.2,1.6,1.7
		C247.8,354,241.4,354.2,239.3,353.7L239.3,353.7z M250.6,353.5c-0.8-0.5-0.9-3.6-0.8-21.7c0.1-11.6,0.8-23.6,0.8-26.7
		c-0.1-6.6,0.2-15.9-0.8-15.9c0.6-0.2,1.3,0.5,1.4,2c0.4,7.1,0.8,38.4,2.9,51c1.3,7.8,3.2,8.3,12,8.8c10.8-0.5,16.8-1.7,28.3-6.1
		c3.8-1.4,6.9-2.5,7.1-2.3c0.5,0.5-5.7,3.7-11.2,5.7c-7.9,2.8-16.1,4.5-25.8,5.3C254.8,354.2,251.8,354.2,250.6,353.5L250.6,353.5z"
		/>
	<path id="XMLID_45_" class="st3" d="M249.9,179.1c0.9,0,1.4-10.7,0.8-16.2c-1-8.3-1.2-46.6-0.2-47.6c1.3-1.3,16.5,0.3,26.7,2.9
		c10.6,2.7,16.5,4.9,25.9,9.8c6.9,3.6,13.5,7.9,13,8.4c-0.1,0.1-4.2-1.7-9-4.1c-11.3-5.7-16.9-7.7-28.2-10c-5.1-1.1-11.4-2.5-14-3.1
		c-6.2-1.6-7.7-1.5-9.6,0.2c-1.4,1.3-1.6,2.2-2.2,8.3c-0.5,5.1-0.4,8.1,0.2,11.8C253.1,148.9,255.3,154.3,249.9,179.1L249.9,179.1z"
		/>
	<path id="XMLID_6_" class="st4" d="M238.7,423.2c-23-10.9-36.3-18.2-50-27.1c-33.3-21.8-59-49.3-80.5-86.1
		c-19.9-34-30.7-70-33.8-113.1c-0.8-10.5-0.4-51.7,0.5-57.2c0.9-5.5,1.3-1.4,0.7,7.8c-3.4,56.1,6.5,110,27.7,149.6
		c19.8,37.1,43.8,65.1,75.6,88.3c12.8,9.3,35.1,22.4,58.6,34.3c10.1,5.1,12.5,6.1,14.2,5.9c1.1-0.2,5.6-2,10-3.9
		c17-7.7,31.6-15.9,37.4-20.9c1.6-1.4,8.6-6.6,15.7-11.6c7.1-5,16.1-11.9,20.2-15.3c35.1-29.4,63.7-72.2,76.9-114.9
		c8.2-26.8,12.5-58.2,12.5-90.9c0-13.6-0.8-28.4-1.6-30.5c-0.3-0.8-0.1-1.1,1.2-1.1c1.4,0,1.6,0.3,2,3c0.9,7.4,1.5,35,1,47.4
		c-1.2,27.9-4.2,46.3-11.6,70.8c-5,16.7-7.8,23.7-14.6,37.2c-15,29.6-35.1,56.7-56.1,75.6c-20.5,18.4-37.6,29.8-67.3,44.6
		c-11.3,5.7-27.1,13.3-27.4,13.2C249.7,428.4,244.7,426.1,238.7,423.2L238.7,423.2z M238.3,412.2c-16.6-8.6-38.4-22.6-45.5-29.1
		c-2.8-2.5-2.7-2.5,6.9,3.5c9.4,5.8,21.7,12.6,36.1,19.8l13.6,6.8l8.6-4.3c28.6-14.2,46.6-25.3,63.7-39.4
		c26.5-21.8,46.5-46.1,62.9-76.5c18-33.3,26.6-70.5,26.6-114.4c0-12-1.1-32.6-1.9-34.8c-0.9-2.3-25.8-19.7-39.3-27.4
		c-14.3-8.2-32.1-16.1-50.6-22.6c-5.3-1.9-9.8-3.5-10-3.7c-1-1,15.2,2.8,24.4,5.7c15.5,5,32.6,13,46.8,21.8c6.5,4,25,17.5,30.5,22.2
		c1.3,1.1,1.5,2,2.1,9.9c0.9,11.2,0.3,44.9-1,55.8c-2.4,21.6-8.3,46.6-15.5,66.2c-3.7,10.1-13.7,30.7-19.6,40.3
		c-4.7,7.7-16.8,25.2-22.1,31.9c-9.5,11.9-33.2,34.1-43.3,40.5c-7.5,4.7-39.3,21.1-52.5,27c-4,1.8-8.1,3.9-9.2,4.6
		c-1,0.7-1.9,1.3-2.1,1.3C247.9,417.2,243.5,414.9,238.3,412.2L238.3,412.2z M251.2,352.8c-0.8-0.5-0.9-2.8-0.7-15.8
		c0.2-16.7,1.3-22.8,1.4-8c0.1,11.9,0.8,19.4,2,20.3c1.3,0.9,1.9,3.5,0.8,3.5c-0.5,0-1.2,0.1-1.7,0.3
		C252.5,353.3,251.7,353.2,251.2,352.8L251.2,352.8z M239.7,352.2c-0.5-0.8,4.7-0.8,5.9,0c0.7,0.4,0,0.6-2.3,0.6
		C241.5,352.8,239.9,352.5,239.7,352.2L239.7,352.2z M161.2,156.1c0-1,7-8.3,12-12.5c10.7-9.1,25.5-17.4,37.8-21.3
		c12.1-3.8,34.6-8,34.6-6.4c0,0.4-0.1,0.7-0.2,0.7c-2.1,0-13.1,2.5-21.6,5c-16,4.6-32.1,12.7-46.2,23.2
		C168.1,151.8,161.2,156.6,161.2,156.1L161.2,156.1z M251.1,146.6c-0.7-4.7-1.2-27.1-0.6-29.1l0.5-1.9l6.8,0.2
		c7.5,0.2,16.4,1.7,24.9,4.2c5.3,1.5,13.5,4.9,13.5,5.5c0,0.2-1.3-0.1-3-0.6c-6.7-2-30.9-7.8-34.3-8.1c-3.3-0.3-3.8-0.3-4.2,0.8
		c-0.2,0.6-0.9,2-1.4,2.9c-0.7,1.3-1.1,4.9-1.4,15.3C251.6,144.5,251.3,148.4,251.1,146.6L251.1,146.6z M93.8,210.2
		c-1.3-10.1-1.8-18-2.3-29.9c-0.4-12.5,0.5-33.5,1.5-34.5c0.4-0.4,1.1,0.1,2,1.5c1.1,1.7,1.3,2.7,1,5.6c-2.1,21.3-2.6,37.3-1.5,52.7
		C94.8,210.1,95.4,222.2,93.8,210.2L93.8,210.2z M413,130.5c-6.4-4.3-11.8-8.4-11.8-9.1c-0.1-1,1.4-0.4,5.8,2.5
		c3.9,2.6,12.6,10.1,11.7,10.1C418.5,134.1,415.9,132.5,413,130.5L413,130.5z"/>
	<path id="XMLID_7_" class="st3" d="M235.5,422.3c-34.9-16.6-55.2-29.4-76.5-48.3c-31.3-27.7-58.2-67.8-71.7-107.2
		c-11.4-33.2-16-68.7-14.2-110.5c0.5-11.6,1-18.5,1.5-19.2c1.1-1.6,10.6-9.2,18.7-14.8c19.6-13.8,43.2-26.2,64.8-34.3
		c54-20.1,113.1-21.9,168.7-5.1c29.5,8.9,67,28.7,91.5,48.4c3.1,2.5,6.1,4.7,6.7,4.9c1.6,0.6,2.1,9.4,2.1,37.3
		c0,26.4-0.5,33.1-3.8,52.5c-2,11.6-3.7,19-8.1,33.5c-7,23.4-16.2,42.3-31.7,65.6c-25.7,38.5-55.7,64.8-100.7,88.2
		c-13.6,7.1-31.3,15.3-33,15.2C249,428.4,242.6,425.6,235.5,422.3L235.5,422.3z M262.4,420c10.1-4.7,16-8,18.2-10
		c0.9-0.8,5.6-3.9,10.6-6.9c27.3-16.5,45.2-30.2,61.2-46.9c16.6-17.3,29.2-34.5,41.4-56.8c19.9-36.2,29.3-78.4,29.5-131.8
		c0-10-0.2-20.5-0.5-23.4c-0.5-5.2-0.6-5.4-2.7-6.6c-46.2-34.3-85.3-54.9-141.8-63.2c-12.3-1.6-45.6-1.6-57.8,0
		c-26.3,3.4-48.9,9.2-64.7,16.5c-29.1,13.5-37.4,18-57.2,31.1c-7.4,4.9-15.2,9.9-17.3,11.2l-3.8,2.3l-0.4,4.2
		c-0.9,10-1.2,39-0.5,50.1c3.5,53.2,16.1,92.2,42.8,132.5c9.2,13.9,18.4,25,30.9,37.5c23,23,43.4,36.9,84.5,57.5
		c13.3,6.7,15.3,7.5,17.3,7.1C253.2,424.1,257.7,422.2,262.4,420L262.4,420z M237.8,412.9c-18.3-9.6-35.2-20.5-49.3-31.7
		c-8-6.4-22.2-19.4-22.2-20.3c0-0.4,1.2,0.4,2.7,1.6c12.1,10.4,29.8,22.7,44.2,30.9c10.6,6,34.6,18.2,36,18.2
		c1.3,0,26.2-12.5,35.9-18c43.9-25,75.2-56.9,99.5-101.7c10.4-19.2,18.4-42.6,22.3-65.3c2.7-16.1,4.4-45.1,3.5-60.8
		c-0.8-14.7,2.9-18.6-9.2-27.8c-35.3-25.8-65.1-39.8-105.3-49.5c-6-1.4-11.4-2.9-12.2-3.2c-2.3-0.9,3.8-0.7,11.6,0.4
		c34.3,4.8,62.2,15.3,90.8,34.2c8.2,5.4,24,17.4,26.6,20.1l1.6,1.7l0,27.3c0,30-0.4,35.5-4.1,55.5c-5.9,31.9-16,60-30.6,85
		c-3.9,6.6-14.4,22.2-21.7,32.1c-8.7,11.8-31.6,34.3-43.4,42.8c-4.5,3.2-38.5,20.5-53.4,27.2c-4.9,2.2-9.2,4.5-9.6,5.1
		C250.1,418.7,247.4,417.9,237.8,412.9L237.8,412.9z M95.7,198.8l0.3,7.3c1,24.6,8.4,53.7,19.5,77.4c5.9,12.6,14.6,27.1,24.7,41.1
		c2.6,3.6,6.2,8.7,8,11.2c1.8,2.6,8.7,10,15.1,16.6c6.5,6.5,11,11.2,10,10.3c-24.2-21.4-42.2-44.6-55.8-72.1
		c-14.1-28.6-21-51.7-24.8-83.7c-1.4-11.9-1.7-59-0.3-61.4c2.8-4.9,33-25,48.3-32.2c6.1-2.9,17.8-7.4,18.9-7.3
		c0.4,0-2.6,1.7-6.7,3.6c-14,6.7-25.6,13.7-41.2,24.8c-3.1,2.2-8.1,5.5-11.1,7.3c-3,1.8-5.5,3.6-5.5,3.9L95.7,198.8L95.7,198.8z
		 M176.2,364.8c-0.8-1-0.8-1,0.2-0.2c1,0.8,1.4,1.3,0.9,1.3C177.1,365.9,176.6,365.5,176.2,364.8L176.2,364.8z"/>
	<path id="XMLID_8_" class="st5" d="M237.5,398.4c-43.6-22.5-71.1-44.8-94.5-76.5c-21.4-28.9-34.8-59.1-41.3-93.1
		c-3.3-17.2-3.8-24.4-3.8-50.3c0-13.2,0.2-25,0.5-26.2c0.4-1.9,1.4-2.9,7.5-7.3c20.7-15.1,36.4-24.1,56.4-32.7
		c28.4-12.2,66.1-18.7,97.8-16.8c50.4,2.9,89.5,17.4,133.3,49.6c7.5,5.5,7.8,5.8,7.4,7.1c-0.3,0.7-0.4,0.7-1,0
		c-0.4-0.5-2-1.7-3.5-2.8c-1.5-1.1-5.2-3.8-8.2-6c-3-2.2-6.5-4.6-7.8-5.4c-1.3-0.8-3.9-2.5-5.8-3.7c-4.5-2.9-8.6-5.2-22.2-11.9
		c-17.3-8.5-21.1-10.3-23.1-10.8c-1-0.2-4.4-1.3-7.5-2.4c-20.9-7.4-46.5-11.5-71.5-11.5c-30.3,0-58.7,5.5-84.9,16.3
		c-7.2,3-23.5,11.1-30.2,15.1c-12.3,7.3-30.4,20-32.5,22.8c-1.6,2.1-2.2,9.7-2.2,28.3c-0.1,34.9,5.4,64.2,17.5,92.8
		c13.3,31.4,40.6,67.3,69.2,90.8c10.1,8.3,11,9,14.5,11.2c1.6,1,5.1,3.4,7.8,5.2c2.7,1.8,5.2,3.3,5.7,3.3c0.5,0,0.8,0.3,0.8,0.6
		c0,0.3,1.2,1.3,2.7,2c6.6,3.4,10.3,5.5,13.5,7.6c1.9,1.2,3.9,2.3,4.5,2.3c0.6,0,1.2,0.3,1.4,0.6c0.2,0.3,1.6,1.2,3,1.9
		c1.4,0.7,3.1,1.5,3.6,1.8c0.5,0.3,2.3,1.2,3.9,1.9c1.6,0.8,2.8,1.6,2.6,1.9c-0.2,0.3-0.5,0.6-0.8,0.6
		C249.8,404.7,244.2,401.8,237.5,398.4L237.5,398.4z M239.3,365.6c-0.9-0.1-4.7-0.7-8.4-1.3c-3.8-0.6-7.6-1.4-8.6-1.9
		c-0.9-0.5-2.5-0.8-3.4-0.8c-2.4,0-15.3-4.5-21.3-7.4c-0.6-0.3-2.2-1-3.5-1.7c-1.4-0.6-4.3-2.2-6.5-3.5c-2.2-1.3-4.1-2.4-4.3-2.4
		c-0.6,0-7.7-5.3-10.3-7.7c-1.4-1.3-2.8-2.3-3.1-2.3c-0.3,0-1.3-0.8-2.3-1.7c-8.6-8.2-12.6-12.2-12.3-12.5c0.2-0.2,2.4,1.7,4.9,4.1
		c33.7,33.1,84.9,44.7,130.4,29.5c27.4-9.1,49.4-26.1,65.7-50.6c22.1-33.2,27.6-72.8,15.1-110.6c-10.6-32.2-34.8-59.9-65.8-75.4
		c-2.2-1.1-3.7-2-3.3-2c1.1,0,16.2,7.3,16.7,8.1c0.2,0.4,0.8,0.7,1.4,0.7c0.5,0,2,0.8,3.2,1.7c1.2,1,3.1,2.1,4.1,2.7
		c5.1,2.6,22.5,19.4,28.9,27.8c19.5,26,28.2,56,25.5,89c-0.5,6-1.2,12.2-1.5,13.7c-0.4,1.5-1,4.2-1.4,5.9
		c-1.5,6.7-6.7,21.2-9.4,26.2c-7.9,14.6-12.7,21.6-20.7,30.2c-14,15.2-31,26.9-48.8,33.6c-17.8,6.8-26.2,8.3-45.6,8.6
		C247.1,365.8,240.2,365.7,239.3,365.6L239.3,365.6z M260.9,343.8c-3.4-8.2-8.4-38.6-8.4-51.4c0-4.4,1-5.2,2.9-2.3
		c1.2,1.9,2.7,9.4,2.8,13.6c0,1.6,0.3,4.2,0.6,5.6c0.3,1.5,1.2,7.3,1.9,12.9c1.3,10.4,3.7,20.2,5.4,22.1c0.8,0.9,0.7,1.1-0.5,1.4
		C262.6,346.3,261.8,346,260.9,343.8L260.9,343.8z M232.2,344.8c-0.2-0.3,0.5-0.4,1.5-0.2c1,0.1,1.8,0.4,1.8,0.5
		C235.6,345.6,232.5,345.3,232.2,344.8L232.2,344.8z M228.9,344.3c0.2-0.2,0.7-0.2,1.2-0.1c0.5,0.2,0.4,0.3-0.4,0.4
		C229.1,344.7,228.7,344.5,228.9,344.3L228.9,344.3z M221.2,342.7c-8.2-2.2-13.9-4.3-20.9-7.7c-56.7-27.2-79.6-95.5-50.9-151.6
		c15.6-30.5,43.7-51.9,77-58.7c8.1-1.7,11.9-1.5,12.1,0.5c0.2,1.1,0,1.3-0.8,1c-1.1-0.4-11.9,1.3-15.7,2.6c-1.4,0.5-4.5,1.5-6.9,2.2
		c-6.1,1.9-19.6,8.6-25.8,12.7c-24.3,16.3-40.7,40.8-47,70.4c-1.7,8.2-2.4,24.4-1.3,33.6c1.5,12.6,4.9,24.3,10.4,35.4
		c3.2,6.5,5.4,10,11.8,19.2c2.6,3.7,12.8,14.2,18.4,18.8c3.8,3.2,13.3,9.8,14.1,9.8c0.4,0,1.2,0.6,1.8,1.3c0.6,0.7,1.5,1.2,2,1.2
		c0.5,0,1.7,0.5,2.6,1.2c0.9,0.7,2.5,1.4,3.5,1.6c1,0.2,2.1,0.7,2.5,0.9c0.8,0.6,8,3.2,13.1,4.6c2.1,0.6,4.3,1.3,5,1.6
		C228.7,344.4,226.1,344.1,221.2,342.7L221.2,342.7z M274,271.3c-2.2-1-8.9-6.9-8.4-7.5c0.2-0.2,1.4,0.5,2.7,1.6
		c3.4,2.8,7.6,3.8,11.6,2.7c6.5-1.7,10.2-6.5,12.6-16.3c0.8-3.1,1.6-5.9,1.8-6.1c0.2-0.3,1.1,0,1.8,0.5c1.3,0.9,1.4,1.4,1.3,5.1
		c-0.1,2.3-0.5,4.8-1,5.7c-0.5,0.9-0.8,2.2-0.8,3c0,0.8-0.6,1.7-1.2,2c-0.7,0.4-1.4,1.6-1.6,2.7c-0.4,2.1-3.8,5.1-7.5,6.5
		C282.7,272.4,276.3,272.4,274,271.3L274,271.3z M170.2,271c-10.3-0.2-13.4-0.5-14.3-1.2c-1-0.9-1-0.9,0.1-1.4
		c0.6-0.2,7.7-0.5,15.6-0.5c11.3,0,14.6-0.2,15.2-0.9c0.4-0.5,1.5-4.7,2.4-9.4c1-4.7,2-8.8,2.4-9.2c0.4-0.4,2.5-0.6,5-0.5l4.3,0.2
		l0.2,1.9c0.2,1.8,0.1,1.9-1.6,1.7c-3.1-0.5-4.2,0.7-5.3,5.1c-0.6,2.2-1,4.6-1,5.2c0,2-1.2,5.7-2.4,7.1
		C189.1,271.1,186,271.3,170.2,271L170.2,271z M204,271.2c-1.9-0.5-3.6-2.2-2.9-2.9c0.3-0.3,6.9-0.6,14.6-0.7
		c7.7-0.1,14.3-0.3,14.7-0.6c0.4-0.3,0.8-1.5,0.8-2.7c0-2.2,0-2.2-2.3-2l-2.3,0.2l-0.1-23.4c-0.1-15.3,0.1-23.1,0.5-22.4
		c0.3,0.6,1.6,3.9,2.7,7.3c1.9,5.7,2.1,6.6,1.5,9.6c-0.4,1.9-0.5,8.4-0.3,15.4l0.4,12.1l1.9,2c2.5,2.6,2.6,5.5,0.2,7
		c-1.5,1-3.4,1.1-14.8,1.2C211.2,271.5,204.7,271.4,204,271.2L204,271.2z M249.2,270.9c-1.6-0.9-1.3-1.8,0.4-1.8
		c0.8,0,1.7-0.3,1.9-0.6c0.2-0.4,1-51,1-63.9c0-0.8,0.6-1.1,2.3-1.3c2.1-0.2,2.4-0.4,2.5-2.2c0.2-2.1,0.5-2.4,1.7-1.6
		c0.8,0.5,2.1,2.9,2.1,3.8c0,0.3-1,1.8-2.2,3.2l-2.2,2.6l0.3,17.9c0.3,21.1,0.4,17.8-0.2,31.2c-0.4,10.4-0.5,10.9-1.9,12
		C253.4,271.7,250.9,271.9,249.2,270.9L249.2,270.9z M297,270.4c-1.1-0.7-2-1.5-2-1.9c0-0.4,4.9-0.6,14-0.6c15,0,15.7-0.1,15.3-3.2
		c-0.1-1-0.7-1.5-1.9-1.6c-1.2-0.1-1.7-0.6-1.7-1.4c0-1,1.2-7.4,2.2-11.7c0.3-1.3,0.7-1.4,5.3-1.4h5v2.2c0,2-0.1,2.2-1.7,1.8
		c-2.7-0.5-4.4,1.3-5.2,5.5c-0.6,3.3-0.5,3.7,0.7,5.5c1.2,1.6,1.3,2.2,0.8,4.2c-0.9,3.6-2,3.9-16.2,3.9
		C300.1,271.6,298.8,271.5,297,270.4L297,270.4z M334.3,270.2l-2.2-1.4l1.6-0.5c0.9-0.2,5.3-0.5,9.8-0.5c8.8-0.1,9-0.1,9-3.5
		c0-2,0.8-1.9,2.5,0.1c1.7,2.2,1.6,3.2-0.4,5.3c-1.7,1.7-1.7,1.8-9.8,1.7C337.4,271.6,336.3,271.4,334.3,270.2L334.3,270.2z
		 M167.8,262.1c-0.2-0.4-0.2-13.6-0.1-29.2l0.2-28.4l2.4-0.2c1.9-0.2,2.5-0.5,3-1.8c0.3-0.9,0.9-1.4,1.2-1.2c1.2,0.7,0.6,3-1.3,5.1
		l-1.9,2.1l0.1,18.9c0,10.4,0.3,22.4,0.5,26.7c0.3,5.4,0.2,7.9-0.2,8.3C170.5,263.1,168.1,262.9,167.8,262.1L167.8,262.1z
		 M215.1,262c-0.3-0.4-1.6-5.5-2.8-11.4c-1.3-5.8-4-18.4-6-27.8c-2.1-9.5-3.9-18.7-4.2-20.5c-0.4-3.2-0.4-3.3,0.8-2.7
		c0.7,0.4,1.6,1.5,1.9,2.4c0.8,2.1,4.8,17.9,6.3,25.2c2.5,11.7,6.8,29,8.2,32.3c0.4,1.1,0.7,2.1,0.5,2.3
		C219.1,262.5,215.6,262.7,215.1,262L215.1,262z M309,262.1c-0.2-0.4-0.2-13.7-0.1-29.5l0.2-28.7l2.1,0c2.1,0,3.2-1,3.2-2.9
		c0-1.5,1.8-1.9,2.5-0.6c1.2,2.2,0.7,4.7-1.3,6.6l-1.9,1.8l0.2,26.7c0.2,26.2,0.2,26.7-1.1,27C310.7,263.1,309.3,262.9,309,262.1
		L309,262.1z M346.6,261.8c-0.2-0.6-3-13.6-6.3-28.9c-6.1-28.4-7.3-35-6-35c1.1,0,3.1,2.5,3.8,4.6c0.7,2.1,2.9,12,3.8,17.1
		c0.3,1.8,1.1,5.4,1.8,8.1c0.7,2.7,1.6,6.5,2,8.6c0.4,2.1,1.2,5.6,1.7,7.8c1,4.1,2.4,10.3,3.3,14.4c0.3,1.2,0.7,2.7,0.9,3.3
		c0.4,0.9,0.1,1.1-2.1,1.1C347.6,262.8,346.8,262.6,346.6,261.8L346.6,261.8z M274.6,261.6c-1.8-0.7-3.8-3.4-4.6-6.2
		c-0.4-1.3-0.8-8-1-15.1c-0.4-13.5,0.4-25,2-30.4c1.6-5.4,5.5-7.6,9.6-5.4c2.3,1.2,4.4,4.2,3.6,5c-0.3,0.3-0.8,0-1.1-0.6
		c-0.8-1.5-4-1.4-5.5,0.1c-2.8,2.8-4.1,13.9-3.6,32.3c0.4,14.5,0.6,16,3.5,18.6c0.7,0.7,1.3,1.4,1.3,1.7
		C278.7,262.4,276.3,262.3,274.6,261.6L274.6,261.6z M323.7,242.2c0-1.7,4.1-21.2,4.5-21.2c0.2,0,0.9,3.2,1.4,7
		c1.4,9.3,1.3,8.7,0.5,10.3c-0.9,1.6-0.4,2.9,0.9,2.4c0.5-0.2,0.9,0.1,0.9,0.6c0,0.6-0.6,0.9-1.7,0.9c-0.9,0-2.8,0.2-4.1,0.4
		C324.3,242.9,323.7,242.8,323.7,242.2L323.7,242.2z M191.8,241.8c-0.1-1.3,4.1-20.8,4.5-20.8c0.2,0,0.7,2.5,1.2,5.5
		c0.6,4.2,0.6,6.1,0.1,7.7c-0.4,1.2-0.8,3.5-0.8,5.1l-0.1,2.9h-2.4C192.9,242.2,191.8,242,191.8,241.8L191.8,241.8z M240.1,217.5
		c-3.2-7.8-6-15.2-6.2-16.4l-0.3-2.1l1.9,1.4c1.4,1,2.9,3.6,5.5,9.6c2,4.5,3.9,8.4,4.3,8.6c0.6,0.4,1.4,9.8,1,12
		C246,231.2,243.3,225.3,240.1,217.5L240.1,217.5z M289.6,222c-0.7-0.5-1.1-1-0.9-1.1c0.2-0.1,0.9-0.5,1.6-0.9
		c1.1-0.6,1.3-1.5,1.6-10.4c0.2-5.3,0.5-9.9,0.8-10.2c0.3-0.3,0.5,0.4,0.5,1.4c0,2.3,1,3.4,3.3,3.4c1.7,0,1.8,0.1,1.4,2
		c-0.2,1.1-0.6,4.5-0.9,7.5c-0.4,4-0.9,6-1.8,7.2C293.7,222.8,291.4,223.3,289.6,222L289.6,222z M218.9,205.9c-1-1-0.9-1.7,0.2-1.7
		c0.5,0,0.9,0.6,0.9,1.2C220,206.8,219.9,206.9,218.9,205.9L218.9,205.9z M244.5,205.9c-1.1-1.1-0.9-1.7,0.5-1.7
		c0.8,0,1.3,0.4,1.3,1.2C246.2,206.8,245.6,207,244.5,205.9L244.5,205.9z M283.7,198.8c-2.4-1.7-2.1-1.9,1-0.8
		c1.1,0.4,2.1,1.1,2.1,1.6C286.8,200.7,286.2,200.5,283.7,198.8L283.7,198.8z M251.3,182.3c-0.7-0.5-0.7-0.7-0.1-1.5
		c0.5-0.6,1.1-5.1,1.7-11c1.9-22,6.6-45.5,9.3-46.5c0.5-0.2,3.2,0.1,6.1,0.6c28.5,4.9,52.1,18.9,70,41.5c1.2,1.5,2.6,3.5,3,4.4
		l0.7,1.6l-1.1-1.5c-0.6-0.8-2.4-2.9-3.9-4.7c-1.5-1.8-3.4-3.9-4.1-4.8c-2.9-3.7-13.5-12.3-21.2-17.3
		c-15.4-10.1-43.3-19.4-46.5-15.5c-1.5,1.8-3.6,10.6-5,20.6c-1.6,11.5-1.9,14.1-2.5,21.6c-0.8,9.7-1,10.4-2.9,11.9
		C252.7,183,252.5,183.1,251.3,182.3L251.3,182.3z"/>
	<path id="XMLID_58_" class="st6" d="M251.7,235.9l0.2-32.3l2.3-0.2c2.1-0.2,2.4-0.4,2.5-2.2l0.2-2l-6.5-0.2
		c-8.5-0.3-8.7-0.2-8.4,2.2c0.2,1.7,0.5,2,2.4,2.3l2.2,0.3l0.2,14.6c0.1,8-0.1,14.4-0.3,14.3c-0.3-0.2-3.6-7.8-7.3-16.9l-6.8-16.6
		l-8.2,0.2l-8.2,0.2v1.9c0,1.7,0.2,1.9,2.3,2.1l2.3,0.2l-0.2,29.5l-0.2,29.5h-2.8h-2.8l-6.5-30c-7.8-36.3-7.4-34.5-8.6-34.9
		c-2.6-1-2.9,0.1-8.6,26c-5.7,26.1-7.3,31.3-10.9,35.1c-2.5,2.7-5.9,4.2-9.5,4.2h-3.2l0.2-29.5l0.2-29.5l2.2-0.3
		c1.9-0.3,2.2-0.5,2.2-2.2v-1.9h-9.7h-9.7l-0.2,1.8c-0.2,2.1,0.7,2.9,3.2,2.9l1.7,0v29.4v29.4H156c-2.6,0-3.5,0.7-3.5,2.5
		c0,1,0.2,1.9,0.5,2.1c0.3,0.2,8,0.1,17.3-0.1l16.8-0.4l1.9-9.4l1.9-9.4l5.1-0.2c4.9-0.2,5.2-0.1,5.4,1.3c1.1,5.2,2.2,11.4,2.2,12.4
		c0,0.8-0.6,1.2-2,1.3c-1.8,0.2-2,0.4-2,2.1v1.9l15,0.2c13,0.1,15.1,0,15.7-0.8c1.3-1.8,0.3-3.3-2.2-3.5l-2.3-0.2l-0.2-23.1
		c-0.1-12.7,0.1-23.3,0.3-23.6c0.3-0.3,4.8,10.2,10.1,23.4c13,32.4,11.6,29.3,13.6,29.1l1.7-0.2L251.7,235.9L251.7,235.9z
		 M191.2,242.4c0-1.5,4.7-22.7,5-22.7c0.5,0,4.9,21.9,4.5,22.7c-0.1,0.3-2.3,0.5-4.9,0.5S191.2,242.6,191.2,242.4L191.2,242.4z
		 M280.8,267.8c5.4-1.5,9.4-7.2,11.4-16c1.2-5.4,0.9-6.4-1.6-6.4c-2.3,0-2.3,0-3.8,6c-1.7,6.5-3.7,9.9-6.6,10.9
		c-4.1,1.4-7.8-0.5-9.9-4.9c-1.2-2.7-1.4-4.2-1.6-19.2c-0.3-23,1.1-31.4,5.5-33.7c5.8-3,10.7,1.2,12.5,10.6c0.8,4.1,1.3,4.9,3,4.6
		c1.1-0.2,1.2-1.1,1.5-9.9c0.2-5.3,0.2-10,0.1-10.5c-0.5-1.4-3.2-0.9-4,0.7l-0.7,1.5l-3-1.9c-2.7-1.7-3.4-1.9-7.1-1.6
		c-3.3,0.2-4.6,0.6-6.7,2.1c-7.3,5.2-12.4,18.6-12.4,32.7c0,16.3,6.4,30.9,15.3,34.8C275.1,268.6,277.6,268.7,280.8,267.8
		L280.8,267.8z M351.2,266.9c1.4-1.7,0.5-3.1-2.1-3.5l-2.5-0.3l-7-32.5c-3.9-17.9-7-32.6-7.1-32.6c0-0.1-0.8-0.2-1.9-0.2
		c-2.2,0-1.8-1.3-5.9,18.1c-1.6,7.4-4.5,20.9-6.5,30l-3.6,16.6l-3,0.2l-3,0.2l0.2-29.6l0.2-29.6l2.2-0.3c1.9-0.3,2.2-0.5,2.2-2.2
		v-1.9h-9.7H294v1.9c0,1.7,0.2,1.9,2.2,2.2l2.2,0.3v29.4v29.4l-2.2,0.3c-1.9,0.3-2.2,0.5-2.4,2.4l-0.2,2l14.9-0.2l14.9-0.2l0.2-1.7
		c0.2-1.5-0.1-1.8-1.7-2.1c-1.1-0.2-1.9-0.6-1.9-0.8c0-0.2,0.7-3.5,1.4-7.3l1.4-6.9l5.1-0.2c4.9-0.2,5.1-0.1,5.4,1.3
		c1.1,5.3,2.2,11.4,2.2,12.4c0,0.8-0.4,1.2-1.5,1.2c-0.9,0-1.8,0.5-2.2,1.2c-0.8,1.6-0.8,1.6,0.3,2.8
		C333.6,268.3,350,268.3,351.2,266.9L351.2,266.9z M323.2,241.4c0.2-0.8,1.2-6,2.3-11.6c1.1-5.6,2.3-10.2,2.5-10.2
		c0.3,0,1.4,4.9,2.5,10.8c1.1,5.9,2.2,11.1,2.3,11.6c0.2,0.6-1,0.8-4.8,0.8C323.1,242.9,322.9,242.8,323.2,241.4L323.2,241.4z"/>
	<path id="XMLID_64_" class="st3" d="M351.1,161.3c2.3,3.9,2.9,5.2,6.3,12.8c1.8,4,3.9,8.7,4.7,10.5c0.8,1.8,1.5,3.4,1.5,3.6
		c0,0.2,1.2,3,2.6,6.3c3.3,7.6,4.8,14.9,5.6,27.2c1.1,16.5-0.8,33.7-5.1,47.4c-1.9,6.1-6.5,16.7-7,16.2c-0.1-0.1,1-3.7,2.5-7.9
		c5.6-15.4,7.8-27.3,7.8-42.6c0-16.1-1.8-28.2-6-41.1c-3-9.2-7.8-18.5-15.6-29.9C335.4,143.3,336,140.3,351.1,161.3L351.1,161.3z"/>
</g>
</svg>
