<svg xmlns="http://www.w3.org/2000/svg" width="175.69" height="108.85" viewBox="217.5 341.95 175.69 108.85"><g fill="#0075BF"><path d="M318.63 380.48c23.49-16.53 28.55-32.51 28.55-32.51s-12.67-6.02-45.15-6.02c-60.11 0-79.55 36.98-79.55 36.98h14.19s11.21-29.26 57.62-33.11c24.4-1.35 33.11 2.58 33.11 2.58s-12.79 23-58.48 33.54c-26.81 4.06-50.74 5.59-50.74 5.59s-1.76 8.75.43 17.63c0 0 33.71 1.08 66.25-7.65 14.19-4.95 16.06-5.45 33.77-17.03z"/><path d="M379.66 366.84c-10.99-10.19-20.11-13.67-26.28-15.82-1.74 4.56-3.22 6.84-3.22 6.84s23.19 12.07 23.19 37.8c0 19.84-17.29 32.04-17.29 32.04-7.64 5.5-24.94 16.89-52.69 16.89-33.38 0-50.27-14.88-50.27-14.88 15.68-1.74 38.34-3.49 67.03-21.18 28.69-17.7 34.05-34.72 34.05-34.72H332.2l-3.35 5.23h3.08c-4.02 3.22-15.69 17.16-47.99 26.54-32.31 9.39-61.4 8.31-61.4 8.31s.8 3.75 7.24 10.32c6.43 6.57 22.39 19.3 51.48 24.13 29.09 4.83 47.59 2.01 63.14-3.75 15.55-5.77 28.82-14.21 34.85-20.11s13.41-15.28 13.94-26.14c.54-10.86-2.54-21.32-13.53-31.5z"/></g></svg>