<?xml version="1.0" standalone="no"?>
<!DOCTYPE svg PUBLIC "-//W3C//DTD SVG 20010904//EN"
 "http://www.w3.org/TR/2001/REC-SVG-20010904/DTD/svg10.dtd">
<svg version="1.0" xmlns="http://www.w3.org/2000/svg"
 width="1280.000000pt" height="1280.000000pt" viewBox="0 0 1280.000000 1280.000000"
 preserveAspectRatio="xMidYMid meet">
<metadata>
Created by potrace 1.15, written by Peter Selinger 2001-2017
</metadata>
<g transform="translate(0.000000,1280.000000) scale(0.100000,-0.100000)" stroke="none">
<path d="M5982 11094 c-1289 -117 -2462 -748 -3268 -1759 -527 -661 -867
-1454 -984 -2294 -52 -375 -52 -907 0 -1282 142 -1023 608 -1958 1340 -2689
618 -619 1366 -1040 2219 -1250 705 -174 1517 -174 2222 0 1021 251 1922 827
2571 1641 862 1082 1200 2449 947 3824 -125 679 -434 1378 -856 1938 -754
1001 -1866 1663 -3093 1841 -311 46 -788 59 -1098 30z m-301 -995 c-90 -180
-141 -358 -178 -619 -21 -152 -24 -603 -5 -780 42 -381 102 -696 201 -1045 44
-155 124 -395 165 -494 14 -35 24 -66 22 -68 -9 -10 -260 613 -388 962 -100
275 -256 737 -353 1045 -102 328 -245 829 -245 862 0 17 220 101 417 158 116
34 413 102 420 96 1 -1 -24 -54 -56 -117z m1981 -35 c56 -20 151 -55 210 -80
157 -63 489 -231 503 -254 2 -4 -26 -17 -63 -30 -464 -153 -958 -648 -1383
-1388 -168 -291 -332 -648 -440 -952 -26 -74 -48 -130 -48 -124 -1 16 93 318
171 549 227 673 546 1480 809 2048 39 83 82 178 96 210 14 31 29 57 33 57 5 0
55 -16 112 -36z m-4207 -1251 c100 -456 504 -1004 1115 -1513 253 -210 579
-437 840 -583 181 -102 188 -108 40 -36 -533 262 -1387 764 -2060 1212 -294
196 -420 286 -420 301 0 33 208 368 322 520 67 88 138 176 143 176 2 0 11 -35
20 -77z m6282 -445 c84 -142 195 -366 255 -517 54 -134 89 -231 84 -231 -2 0
-32 13 -67 29 -503 228 -1377 118 -2314 -289 -163 -71 -487 -235 -616 -313
-141 -85 -137 -83 -119 -65 20 20 336 222 540 345 541 327 1100 632 1674 914
308 151 473 227 492 228 6 1 38 -45 71 -101z m-2590 -1914 c-3 -3 -12 -4 -19
-1 -8 3 -5 6 6 6 11 1 17 -2 13 -5z m278 -29 c428 -55 861 -128 1375 -231 596
-120 1416 -322 1428 -352 6 -17 -28 -212 -63 -357 -43 -178 -80 -294 -167
-524 -8 -22 -12 -18 -48 52 -194 381 -646 735 -1304 1021 -376 165 -880 315
-1294 386 -207 35 -177 38 73 5z m-4712 -123 c217 -131 525 -235 859 -291 240
-40 390 -53 703 -58 420 -8 714 13 1094 78 96 16 175 28 177 26 2 -2 -60 -18
-139 -36 -756 -173 -1747 -330 -2557 -406 -91 -8 -182 -17 -202 -19 l-37 -4
-10 52 c-43 213 -71 472 -71 658 l0 128 50 -39 c28 -22 87 -62 133 -89z m2874
-238 c-3 -3 -12 -4 -19 -1 -8 3 -5 6 6 6 11 1 17 -2 13 -5z m1648 -389 c537
-586 1162 -1369 1644 -2058 45 -65 79 -122 76 -127 -15 -25 -285 -231 -410
-314 -149 -99 -323 -201 -330 -194 -3 2 3 40 12 84 24 114 23 404 0 547 -84
501 -319 1045 -702 1622 -150 226 -317 448 -461 610 -53 61 -78 92 -55 70 24
-22 125 -130 226 -240z m-1252 -17 c-6 -7 -59 -78 -119 -158 -288 -386 -737
-922 -1152 -1378 -153 -169 -540 -577 -641 -676 l-80 -79 -73 59 c-102 83
-334 310 -439 431 -49 56 -89 103 -89 106 0 2 44 7 98 10 569 35 1320 467
2018 1162 165 164 326 343 428 473 27 34 51 62 54 62 2 0 0 -6 -5 -12z m587
-658 c17 -546 4 -1214 -36 -1860 -13 -223 -21 -324 -40 -537 l-7 -73 -157 0
c-155 0 -287 9 -445 31 -95 13 -245 38 -263 44 -8 3 11 25 47 55 334 278 616
877 760 1614 69 353 100 645 109 1031 8 349 14 293 32 -305z"/>
</g>
</svg>
