<?xml version="1.0" encoding="UTF-8"?>
<svg xmlns="http://www.w3.org/2000/svg" xmlns:xlink="http://www.w3.org/1999/xlink" width="25pt" height="24pt" viewBox="0 0 25 24" version="1.1">
<g id="surface1">
<path style="fill:none;stroke-width:41;stroke-linecap:butt;stroke-linejoin:miter;stroke:#424242;stroke-opacity:1;stroke-miterlimit:4;" d="M 417.51875 219.5 C 417.51875 110.393066 329.10625 22.007161 220 22.007161 C 110.89375 22.007161 22.48125 110.393066 22.48125 219.5 C 22.48125 328.606934 110.89375 416.992839 220 416.992839 C 329.10625 416.992839 417.51875 328.606934 417.51875 219.5 Z M 417.51875 219.5 " transform="matrix(0.0568182,0,0,0.0546697,0,0)"/>
<path style="fill:none;stroke-width:55;stroke-linecap:butt;stroke-linejoin:miter;stroke:#424242;stroke-opacity:1;stroke-miterlimit:4;" d="M 278.506541 210.508074 L 404.525249 210.491391 " transform="matrix(0.0560135,-0.00916809,0.00952839,0.0538955,-1.730937,3.293877)"/>
<path style="fill:none;stroke-width:45;stroke-linecap:butt;stroke-linejoin:miter;stroke:#424242;stroke-opacity:1;stroke-miterlimit:4;" d="M 269.01875 219.5 C 269.01875 192.419759 247.0875 170.484049 220 170.484049 C 192.9125 170.484049 170.98125 192.419759 170.98125 219.5 C 170.98125 246.580241 192.9125 268.515951 220 268.515951 C 247.0875 268.515951 269.01875 246.580241 269.01875 219.5 Z M 269.01875 219.5 " transform="matrix(0.0568182,0,0,0.0546697,0,0)"/>
<path style="fill:none;stroke-width:44;stroke-linecap:butt;stroke-linejoin:miter;stroke:#424242;stroke-opacity:1;stroke-miterlimit:4;" d="M 210.00012 250.973071 L 209.99508 408.955595 " transform="matrix(0.0566887,-0.00368933,0.00383431,0.0545451,-1.238028,0.815882)"/>
<path style="fill:none;stroke-width:44;stroke-linecap:butt;stroke-linejoin:miter;stroke:#424242;stroke-opacity:1;stroke-miterlimit:4;" d="M 229.989029 264.961653 L 230.016659 410.11473 " transform="matrix(0.0566641,0.00402389,-0.00418203,0.0545214,1.447057,-0.875442)"/>
<path style="fill:none;stroke-width:55;stroke-linecap:butt;stroke-linejoin:miter;stroke:#424242;stroke-opacity:1;stroke-miterlimit:4;" d="M 32.49162 210.680507 L 160.492078 210.664109 " transform="matrix(0.0559983,0.0092537,-0.00961736,0.0538808,2.105151,-0.72653)"/>
<path style="fill:none;stroke-width:60;stroke-linecap:butt;stroke-linejoin:miter;stroke:#424242;stroke-opacity:1;stroke-miterlimit:4;" d="M 235.46875 232.43278 C 235.46875 212.85498 229.00625 196.921224 221.03125 196.921224 C 212.9875 196.921224 206.525 212.85498 206.525 232.43278 C 206.525 252.010579 212.9875 267.944336 221.03125 267.944336 C 229.00625 267.944336 235.46875 252.010579 235.46875 232.43278 Z M 235.46875 232.43278 " transform="matrix(0.0568182,0,0,0.0546697,0,0)"/>
</g>
</svg>
